<svg xmlns="http://www.w3.org/2000/svg" class="icon icon-instagram" viewBox="0 0 20 20" fill="currentColor" aria-hidden="true" focusable="false">
<path d="M10,5.1c-2.7,0-4.9,2.2-4.9,4.9s2.2,4.9,4.9,4.9s4.9-2.2,4.9-4.9S12.7,5.1,10,5.1z M10,13.2c-1.7,0-3.2-1.4-3.2-3.2
	S8.3,6.8,10,6.8s3.2,1.4,3.2,3.2S11.7,13.2,10,13.2L10,13.2z M16.2,4.9c0,0.6-0.5,1.1-1.1,1.1c-0.6,0-1.1-0.5-1.1-1.1
	s0.5-1.1,1.1-1.1S16.2,4.3,16.2,4.9z M19.4,6.1c-0.1-1.5-0.4-2.9-1.5-4c-1.1-1.1-2.5-1.5-4-1.5c-1.6-0.1-6.3-0.1-7.8,0
	C4.6,0.6,3.2,1,2.1,2.1s-1.5,2.5-1.5,4c-0.1,1.6-0.1,6.3,0,7.8c0.1,1.5,0.4,2.9,1.5,4c1.1,1.1,2.5,1.5,4,1.5c1.6,0.1,6.3,0.1,7.8,0
	c1.5-0.1,2.9-0.4,4-1.5c1.1-1.1,1.5-2.5,1.5-4C19.5,12.3,19.5,7.7,19.4,6.1L19.4,6.1z M17.4,15.6c-0.3,0.8-1,1.5-1.8,1.8
	c-1.3,0.5-4.2,0.4-5.6,0.4s-4.4,0.1-5.6-0.4c-0.8-0.3-1.5-1-1.8-1.8c-0.5-1.3-0.4-4.2-0.4-5.6S2.1,5.6,2.6,4.4
	c0.3-0.8,1-1.5,1.8-1.8C5.7,2.1,8.6,2.2,10,2.2s4.4-0.1,5.6,0.4c0.8,0.3,1.5,1,1.8,1.8c0.5,1.3,0.4,4.2,0.4,5.6S17.9,14.4,17.4,15.6
	z"/>
</svg>
